/* XPM */
static char *_b01288c040d4e9c8702ff0d06b4b885[] = {
/* columns rows colors chars-per-pixel */
"32 32 183 2 ",
"   c #C98807",
".  c #CB8B0D",
"X  c #C78D14",
"o  c #C9911F",
"O  c #CB9626",
"+  c #CD972F",
"@  c #CD9A2C",
"#  c #D39C29",
"$  c #C29130",
"%  c #CD9C35",
"&  c #C2953D",
"*  c #D09E3A",
"=  c #D4A22E",
"-  c #D9A02A",
";  c #CDA13C",
":  c #D0A43B",
">  c #D1A83F",
",  c #E9A924",
"<  c #E0A52A",
"1  c #E5A92B",
"2  c #EAAC2C",
"3  c #E5B53D",
"4  c #BD954A",
"5  c #BE9B4D",
"6  c #BE9954",
"7  c #B9975B",
"8  c #BD9C5E",
"9  c #BEA46F",
"0  c #C09642",
"q  c #C59A43",
"w  c #CA9C44",
"e  c #C59D53",
"r  c #CBA14A",
"t  c #CAA84E",
"y  c #D4AD42",
"u  c #D1A54D",
"i  c #D5AD48",
"p  c #DBAD4D",
"a  c #DCB249",
"s  c #CBA352",
"d  c #C7A856",
"f  c #CDAC55",
"g  c #C6A45A",
"h  c #CCA558",
"j  c #D2AA57",
"k  c #D4AB5B",
"l  c #DEBC53",
"z  c #D3B45A",
"x  c #D7BB5B",
"c  c #E6B447",
"v  c #E1B549",
"b  c #E6BA4A",
"n  c #F0B742",
"m  c #C4A266",
"M  c #CAA662",
"N  c #C7AC60",
"B  c #CEA960",
"V  c #C2A76D",
"C  c #CDAC6B",
"Z  c #C9B067",
"A  c #CBB16D",
"S  c #D6B260",
"D  c #DBB663",
"F  c #D5BB64",
"G  c #DCBA62",
"H  c #D7B56B",
"J  c #DBB368",
"K  c #D4BC6E",
"L  c #D8BF6C",
"P  c #C3A672",
"I  c #C4AA73",
"U  c #CBAC72",
"Y  c #C4AC7B",
"T  c #C8AD7D",
"R  c #CCB176",
"E  c #CDB17B",
"W  c #D4B273",
"Q  c #D8B676",
"!  c #DCBB75",
"~  c #D5B378",
"^  c #D2BA7D",
"/  c #DBBB7C",
"(  c #DEC05F",
")  c #E0C25B",
"_  c #DEC467",
"`  c #D9C16E",
"'  c #DAC374",
"]  c #DEC87A",
"[  c #E3C563",
"{  c #E3CB66",
"}  c #E0C06C",
"|  c #E3CB6B",
" . c #E9CD6D",
".. c #E7D16C",
"X. c #EBD46D",
"o. c #EFDA6D",
"O. c #E4CD72",
"+. c #EECE70",
"@. c #E0C77F",
"#. c #E4CB7C",
"$. c #E7D273",
"%. c #EBD573",
"&. c #EEDA75",
"*. c #EAD57B",
"=. c #EEDA7C",
"-. c #F0D471",
";. c #F1DC75",
":. c #F2DE7B",
">. c #F6E274",
",. c #F8E476",
"<. c #F5E27C",
"1. c #F9E67C",
"2. c #FEEC7C",
"3. c #FFF17E",
"4. c #C6AD81",
"5. c #C9AD80",
"6. c #CEB384",
"7. c #CFB68A",
"8. c #D1B584",
"9. c #D5BA84",
"0. c #DCBE87",
"q. c #D0B688",
"w. c #D4BA8B",
"e. c #D8BD8B",
"r. c #D7BF91",
"t. c #D2BD9A",
"y. c #DCC382",
"u. c #DDC28F",
"i. c #DECB8C",
"p. c #D6C197",
"a. c #D9C195",
"s. c #D5C19D",
"d. c #DBC49B",
"f. c #DFC99C",
"g. c #E1C082",
"h. c #E2C58C",
"j. c #E9D180",
"k. c #F1DE83",
"l. c #F0DA8F",
"z. c #E0C593",
"x. c #E2C995",
"c. c #E4CD9F",
"v. c #EDD992",
"b. c #F5E281",
"n. c #FAE783",
"m. c #FEED84",
"M. c #FEEE8A",
"N. c #FFF184",
"B. c #FFF28B",
"V. c #F9E79F",
"C. c #D5C2A1",
"Z. c #D9C7A7",
"A. c #DDC8A2",
"S. c #DECBAA",
"D. c #E0CAA0",
"F. c #E3CEA8",
"G. c #E6D5B4",
"H. c #E5D5B9",
"J. c #EEDCBB",
"K. c #FBEBA3",
"L. c #FEF3A6",
"P. c #DED4C9",
"I. c #E9DBC4",
"U. c #E6DBCC",
"Y. c #EADEC8",
"T. c #E4DBD2",
"R. c #E8DFD2",
"E. c #EDE1CC",
"W. c #ECE2D1",
"Q. c #EEE6DC",
"!. c #F2E6D1",
"~. c #F3E8D6",
"^. c #F0E9DE",
"/. c #E9E4E1",
"(. c #EFEAE6",
"). c #EDECEF",
"_. c #F3EEE3",
"`. c #F2EEE9",
"'. c #F5F1EB",
"]. c #F6F4F0",
"[. c #F8F5F0",
"{. c #FBF9F6",
"}. c #FFFFFF",
/* pixels */
"}.}.}.}.}.}.}.}.}.}.}.}.}.}.}.}.}.}.}.}.}.}.}.}.}.}.}.}.}.}.}.}.",
"}.}.}.}.}.}.}.}.}.}.}.}.}.}.}.}.}.}.}.}.}.}.}.}.}.}.}.}.}.}.}.}.",
"}.}.}.}.}.}.}.}.}.}.}.}.}.}.}.}.}.}.}.}.}.}.}.}.}.}.}.}.}.}.}.}.",
"}.}.}.}.}.}.}.}.}.}.{.{.}.}.{.{.{.}.}.}.}.}.}.}.}.}.}.}.}.}.}.}.",
"}.}.}.}.}.}.}.}.{.!.z.8.^ ' L ` ' i.p.w.S.W.}.}.}.}.}.}.}.}.}.}.",
"}.}.}.}.}.}.}.~.u.e q x { %.%...;.| { t g 8.A.`.}.}.}.}.}.}.}.}.",
"}.}.}.}.}.}.J.~ q F =.*.O.;.:.>.,.$...1.{ d 6.d.R.}.}.}.}.}.}.}.",
"}.}.}.}.}.J.W q O.j.O.<.N.M.2.M.2.2.2.>.O.| d E e.U.}.}.}.}.}.}.",
"}.}.}.}.!.Q w %.*.%.M.N.1.D m.} o.N.2.2.,.{ >.f 6.6._.}.}.}.}.}.",
"}.}.}.{.z.u } =.<.b.*.V.l.k =.j #.n.1.3.3.2.| { d w.C.}.}.}.}.}.",
"}.}.}.W.k D *.O.M.n.:.c n +.-.;. .D p l 2.3.>.{ x W q.`.}.}.}.}.",
"}.}.{.g.Q | M.n.N.M.B.3 , b.N.N.N.1.a . y N.2.2.>.Z r.S.}.}.}.}.",
"}.}._.0.k :.M.m.N.m.M.b 2 1.m.m.2.m.n.=   { N.2.3.z 6.s.{.}.}.}.",
"}.}.E.J H n.M.m.M.m.M.b 2 b.m.m.2.2.B.)   y m.2.3._ E e.{.}.}.}.",
"}.}.G.z.H m.m.M.m.N.M.b 2 <.m.m.m.2.N.o.X @ 1.2.3...w.a.Q.}.}.}.",
"}.}.G./ S n.M.m.m.M.M.b 1 b.N.n.m.2.m.:.O O >.3.2.$.E q.`.}.}.}.",
"}.}.F.h.j :.B.n.M.m.M.v < b.N.n.m.m.N.<.% O 1.2.3.O.E e.Q.}.}.}.",
"}.}.I.f.R { B.m.m.m.B.a - b.N.m.m.n.m.k.* : m.2.1.' 7.7.].}.}.}.",
"{.}.Y.! W f M.m.m.m.M.a # b.M.m.m.m.2.v.@ _ N.2.>.R M u.{.}.}.}.",
"}.}.'.a.c.0 =.M.m.m.M.i @ b.N.m.2.2.L.! ; n.2.N.' C 7.Z.}.}.}.}.",
"}.}.}.u.y.q.5 M.m.M.B.D o :.B.M.B.K.h.u <.m.N...9.T C W.}.}.}.}.",
"}.}.}.R.A.! 7 M M.k.h.S % f ' @.y.! [ n.N.N.o.y.A B t.{.}.}.}.}.",
"}.}.}.}.9.S.Q 7 Z <.1.n.=.r <.r ..N.B.N.N.X.^ A U U E.}.}.}.}.}.",
"}.}.}.}.Q.Q a.e.8 I *.m.n._ B._ b.B.N.>.F Y W 4.h p.}.}.}.}.}.}.",
"}.}.}.}.}.R.d.Q t.g P A ] *.=.<.&.O.K E Y w.m r t.}.}.}.}.}.}.}.",
"}.}.}.}.}.}.H.s.x.E M m 4 P I V 9 Y 6.U 5.& P s.'.}.}.}.}.}.}.}.",
"}.}.}.}.}.}.}.W.9.Z.H t.s T.(.T.).w.e 6 4 E c.{.}.}.}.}.}.}.}.}.",
"}.}.}.}.}.}.}.}.{.H.s.9.9.Q.P.T.T.H.$ 6.f.^.}.{.}.}.}.}.}.}.}.}.",
"}.}.}.}.}.}.}.}.}.}.{.^.{.{.}.}.{.{.].].}.}.}.}.}.}.}.}.}.}.}.}.",
"}.}.}.}.}.}.}.}.}.}.}.}.}.}.}.}.}.}.}.}.}.}.}.}.}.}.}.}.}.}.}.}.",
"}.}.}.}.}.}.}.}.}.}.}.}.}.}.}.}.}.}.}.}.}.}.}.}.}.}.}.}.}.}.}.}.",
"}.}.}.}.}.}.}.}.}.}.}.}.}.}.}.}.}.}.}.}.}.}.}.}.}.}.}.}.}.}.}.}."
};
