/* XPM */
static char *_747228c68c745498813148b0de683e3[] = {
/* columns rows colors chars-per-pixel */
"64 64 256 2 ",
"   c #B87F0C",
".  c #A07735",
"X  c #BF871B",
"o  c #BD8103",
"O  c #BE8C2B",
"+  c #B78727",
"@  c #BD912D",
"#  c #AB8339",
"$  c #B48B3B",
"%  c #B68936",
"&  c #BE933E",
"*  c #BC9337",
"=  c #CE910E",
"-  c #C48B14",
";  c #CA8D14",
":  c #C68D1B",
">  c #CE9314",
",  c #CC931B",
"<  c #D29512",
"1  c #D69813",
"2  c #D49A1B",
"3  c #D89B18",
"4  c #C5890B",
"5  c #E79F0C",
"6  c #DEA21B",
"7  c #E7A81C",
"8  c #F6B41D",
"9  c #F2AE14",
"0  c #C28E2B",
"q  c #C48E22",
"w  c #C69123",
"e  c #C5932E",
"r  c #CD992B",
"t  c #CA9326",
"y  c #D29B23",
"u  c #D39A29",
"i  c #C49432",
"p  c #C99735",
"a  c #CB9934",
"s  c #C4953B",
"d  c #C6993D",
"f  c #CB9B3B",
"g  c #C29937",
"h  c #D39E36",
"j  c #D19F38",
"k  c #C28D33",
"l  c #D6A232",
"z  c #D5A23B",
"x  c #DBA539",
"c  c #D9A334",
"v  c #D7A334",
"b  c #E4A829",
"n  c #E2AA39",
"m  c #E4AB35",
"M  c #AB8442",
"N  c #AD8A44",
"B  c #A88449",
"V  c #B58D44",
"C  c #B48E4B",
"Z  c #BB9343",
"A  c #B4924E",
"S  c #B69449",
"D  c #BC9A54",
"F  c #B4955D",
"G  c #BD9A5A",
"H  c #B79756",
"J  c #AC9158",
"K  c #BCA150",
"L  c #B69965",
"P  c #BA9C63",
"I  c #B59767",
"U  c #B89D76",
"Y  c #BEA26A",
"T  c #BCA37C",
"R  c #C59B44",
"E  c #C49B4B",
"W  c #C79B45",
"Q  c #C29C53",
"!  c #C39E5B",
"~  c #CB9F51",
"^  c #CDA145",
"/  c #CBA34C",
"(  c #C7A648",
")  c #D5A642",
"_  c #DAAA44",
"`  c #D7A84A",
"'  c #D9B14C",
"]  c #C2A352",
"[  c #CCA453",
"{  c #CBAA55",
"}  c #C4A35B",
"|  c #C6AB5A",
" . c #CBAC5B",
".. c #C8A758",
"X. c #D3A651",
"o. c #D3AB54",
"O. c #D5AC56",
"+. c #CDB25B",
"@. c #CFB057",
"#. c #D3B353",
"$. c #DCB153",
"%. c #D1B55C",
"&. c #DBBE5D",
"*. c #D9B75A",
"=. c #E5B348",
"-. c #E2B959",
";. c #F4BD47",
":. c #C19F61",
">. c #C3A363",
",. c #CAAD65",
"<. c #C4A56C",
"1. c #C6A96C",
"2. c #CAA96B",
"3. c #C8A766",
"4. c #D5AE67",
"5. c #CEB568",
"6. c #D3B564",
"7. c #D4BB64",
"8. c #D9BD64",
"9. c #D5BD6A",
"0. c #D9B669",
"q. c #CBAC73",
"w. c #C5AA7B",
"e. c #CAAC79",
"r. c #C4A875",
"t. c #CBB274",
"y. c #D7B876",
"u. c #D2AF70",
"i. c #E2BC6A",
"p. c #E0BC78",
"a. c #DEC15E",
"s. c #F6C355",
"d. c #DCC464",
"f. c #DBC46C",
"g. c #D9C369",
"h. c #DCC676",
"j. c #E2CA65",
"k. c #E3CC6B",
"l. c #E7C667",
"z. c #E6D16C",
"x. c #E9D46E",
"c. c #EDD86D",
"v. c #E4C374",
"b. c #E3CC73",
"n. c #E7C47D",
"m. c #E6C878",
"M. c #E6D273",
"N. c #EAD573",
"B. c #EEDA74",
"V. c #EBD67A",
"C. c #EDD97B",
"Z. c #E6D87D",
"A. c #F1DD74",
"S. c #F1DD7A",
"D. c #F3CB78",
"F. c #F5E375",
"G. c #F4E27C",
"H. c #F9E67E",
"J. c #FEEC7C",
"K. c #F8E979",
"L. c #FFF07E",
"P. c #EFE076",
"I. c #B9A48B",
"U. c #B5A280",
"Y. c #BBA998",
"T. c #C8AF83",
"R. c #C3AC84",
"E. c #CBB283",
"W. c #CBB38B",
"Q. c #C6B18A",
"!. c #DDBE84",
"~. c #DBBE8B",
"^. c #D5BA87",
"/. c #C6B295",
"(. c #CEBB9C",
"). c #CBB899",
"_. c #D2BC98",
"`. c #C1AF9D",
"'. c #C2B3A4",
"]. c #CDBEAE",
"[. c #C9B9A9",
"{. c #D2BFA2",
"}. c #C8BCB3",
"|. c #DEC387",
" X c #DCC79B",
".X c #E4C888",
"XX c #ECD785",
"oX c #E6CC97",
"OX c #EDD492",
"+X c #EAD794",
"@X c #F0D399",
"#X c #F6E583",
"$X c #F9E683",
"%X c #FEEC84",
"&X c #FCED8A",
"*X c #F5E68A",
"=X c #FFF284",
"-X c #FFF38B",
";X c #FFF88E",
":X c #FFF884",
">X c #F8E895",
",X c #FFF393",
"<X c #FFF895",
"1X c #D6C2A3",
"2X c #D4C4AB",
"3X c #DBCAA9",
"4X c #CEC1B3",
"5X c #CDC3BE",
"6X c #D4C5B2",
"7X c #DBCBB5",
"8X c #D5CABB",
"9X c #DACDBB",
"0X c #D5C8B7",
"qX c #DED4BC",
"wX c #E1CEA5",
"eX c #E2CEAA",
"rX c #EAD5A9",
"tX c #E5D4B3",
"yX c #ECDDBE",
"uX c #E9D8B6",
"iX c #F0DBAD",
"pX c #F4E5A5",
"aX c #F2E1B9",
"sX c #F4EBB8",
"dX c #D4CAC2",
"fX c #D6CBC2",
"gX c #DCD3C8",
"hX c #DAD3D2",
"jX c #EEDFC4",
"kX c #E4D9CC",
"lX c #E4D9C5",
"zX c #E4DCD2",
"xX c #F0DFC3",
"cX c #ECE0C6",
"vX c #EAE2CC",
"bX c #F2E4C3",
"nX c #F2E7C9",
"mX c #ECE3D4",
"MX c #EBE4DC",
"NX c #E8E2DB",
"BX c #F4EAD4",
"VX c #F9F2D8",
"CX c #E2DFE3",
"ZX c #ECE7E2",
"AX c #EDE9E3",
"SX c #E9E6E9",
"DX c #F1ECE5",
"FX c #F2EEEB",
"GX c #F5F1ED",
"HX c #FAF2E1",
"JX c #EBEAF1",
"KX c #F5F4F4",
"LX c #FAF9F7",
"PX c #FFFFFF",
"IX c #F6F6FB",
"UX c #F1EFF2",
/* pixels */
"PXPXPXPXPXPXPXPXPXPXPXPXPXPXPXPXPXPXPXPXPXPXPXPXPXPXPXPXPXPXPXPXPXPXPXPXPXPXPXPXPXPXPXPXPXPXPXPXPXPXPXPXPXPXPXPXPXPXPXPXPXPXPXPX",
"PXPXPXPXPXPXPXPXPXPXPXPXPXPXPXPXPXPXPXPXPXPXPXPXPXPXPXPXPXPXPXPXPXPXPXPXPXPXPXPXPXPXPXPXPXPXPXPXPXPXPXPXPXPXPXPXPXPXPXPXPXPXPXPX",
"PXPXPXPXPXPXPXPXPXPXPXPXPXPXPXPXPXPXPXPXPXPXPXPXPXPXPXPXPXPXPXPXPXPXPXPXPXPXPXPXPXPXPXPXPXPXPXPXPXPXPXPXPXPXPXPXPXPXPXPXPXPXPXPX",
"PXPXPXPXPXPXPXPXPXPXPXPXPXPXPXPXPXPXPXPXPXPXPXPXPXPXPXPXPXPXPXPXPXPXPXPXPXPXPXPXPXPXPXPXPXPXPXPXPXPXPXPXPXPXPXPXPXPXPXPXPXPXPXPX",
"PXPXPXPXPXPXPXPXPXPXPXPXPXPXPXPXPXPXPXPXPXPXPXPXPXPXPXPXPXPXPXPXPXPXPXPXPXPXPXPXPXPXPXPXPXPXPXPXPXPXPXPXPXPXPXPXPXPXPXPXPXPXPXPX",
"PXPXPXPXPXPXPXPXPXPXPXPXPXPXPXPXPXPXPXPXPXPXPXPXPXPXPXPXPXPXPXPXPXPXPXPXPXPXPXPXPXPXPXPXPXPXPXPXPXPXPXPXPXPXPXPXPXPXPXPXPXPXPXPX",
"PXPXPXPXPXPXPXPXPXPXPXPXPXPXPXPXPXPXPXPXPXPXPXPXPXPXLXPXPXPXPXPXPXPXPXPXPXPXPXPXPXPXPXPXPXPXPXPXPXPXPXPXPXPXPXPXPXPXPXPXPXPXPXPX",
"PXPXPXPXPXPXPXPXPXPXPXPXPXPXPXPXPXPXPXPXPXMXAXPXPXPXPXPXPXPXLXPXPXPXPXPXPXPXPXGXLXPXPXPXPXPXPXPXPXPXPXPXPXPXPXPXPXPXPXPXPXPXPXPX",
"PXPXPXPXPXPXPXPXPXPXPXPXPXPXPXPXPXPXKXZXLXy.mXxX2XnX Xh.5.,.,.,.5.!. XaXvXjXAXeXw.LXZXPXPXPXPXPXPXPXPXPXPXPXPXPXPXPXPXPXPXPXPXPX",
"PXPXPXPXPXPXPXPXPXPXPXPXPXPXPXPXPXPXiX{.!.O.w.f # $ g ( #.&.d.d.7.%.| | H & P |.E FXQ lXKXPXPXPXPXPXPXPXPXPXPXPXPXPXPXPXPXPXPXPX",
"PXPXPXPXPXPXPXPXPXPXPXPXPXPXPXLXeX7Xh ^.:.t % K j.P.$X;X=X#X#XA.=X-XL.P.B.h.M k r.jXf 7X3X1XPXPXPXPXPXPXPXPXPXPXPXPXPXPXPXPXPXPX",
"PXPXPXPXPXPXPXPXPXPXPXPXPXLXUX|.` ].^ u M  .m.&X*XP.*X5.K.,.z. .=Xb.5.c.G.A.j.8.B s } SX!.E UXMXPXPXPXPXPXPXPXPXPXPXPXPXPXPXPXPX",
"PXPXPXPXPXPXPXPXPXPXPXPXPXxX{.{.y ` . H G.,X*XS.K 7.z.g.N.x.A.z.L.j.| k.7.7.F.=XF.+.B t.o.1XDX>.DXPXPXPXPXPXPXPXPXPXPXPXPXPXPXPX",
"PXPXPXPXPXPXPXPXPXPXPXPXMXx 4.2XE * f.;X*Xm.+.x.z.G.G.:X%X=X%XL.J.L.L.J.d.z.K.K.9.J.z.% B vXBX0 8XkXPXPXPXPXPXPXPXPXPXPXPXPXPXPX",
"PXPXPXPXPXPXPXPXPXPXPXjX2Xq.b 0 S P.<Xm.N.7.C.H.=XL.L.L.%XJ.J.%XL.J.J.J.L.J.L.a.j.Z.M.K.A C $.w.AX:.mXPXPXPXPXPXPXPXPXPXPXPXPXPX",
"PXPXPXPXPXPXPXPXPXPXMXn y.2XZ ^ *X*Xy.%.M.%X=X%XH.=X*XS.J.%X%X#XK.J.J.J.J.J.J.K.F.| ] c.F.( M gXDXe ).SXPXPXPXPXPXPXPXPXPXPXPXPX",
"PXPXPXPXPXPXPXPXPXFX9X~ m h Z $XXXS.+.#X=X%X%X%XJ.*XuX/ %XJ.pX~.#.:XJ.J.J.J.J.J.L.A.k.{ c.:XN D $.>.7XI PXPXPXPXPXPXPXPXPXPXPXPX",
"PXPXPXPXPXPXPXPXGXi.4.fXQ p A.;X7.7.%X%X%XH.%X%X=XV.x ' J.=X8.x j.=XJ.K.J.J.J.J.J.L.P.j.G.B.K.* A NXjX@ ZXPXPXPXPXPXPXPXPXPXPXPX",
"PXPXPXPXPXPXPXPXUXX.b -.. l.,XXX%XS.=X&X&X,X%XH.%XM.O @.&X,X#.0 b.=XJ.L.L.J.J.J.J.J.L.F.z.g.z.x.. .XX.>.Y.zXPXPXPXPXPXPXPXPXPXPX",
"PXPXPXPXPXPXPXmXoX].^.p l.&Xb.| G.-X$X5.u.!.aXbXaXiX.X.Xn.n.p.y..XOXOXXXA.J.L.J.J.J.K.L.A.| j.L.#.% <.SXy.T.PXLXPXPXPXPXPXPXPXPX",
"PXPXPXPXPXPXPX^.1 .X!.Z -XXXf.G.-X%X%X%XH.z._ s.;.;.=.$.-.&.-.-.$.` -.v.p. .a.=XL.K.J.J.J.F.c.+.K.# eXBX^ E.PXPXPXPXPXPXPXPXPXPX",
"PXPXPXPXPXPXLXkXX.m h v.&X| f.$X=X&X%X%X%X;X' 5 9 m V.-X&X=X-X%X%XA.&.z m =.e g K.L.J.J.J.J.#.j.K.{ + p >.6X/.PXPXPXPXPXPXPXPXPX",
"PXPXPXPXPXLXtX~.hX).Z &X=X$XV.-X%X%X=X%X%X-X*.b 8 n C.=X%XJ.J.J.J.%X&XS.( 3 b ; @ K.J.J.J.J.L.L.J.F.] _.JXcXD PXPXPXPXPXPXPXPXPX",
"PXPXPXPXPXPX~ 7 @X$.} ,X%X-X-X%X=X&X%X=X%X-X-.m 8 n V.%X%X%X%X%X%X%XJ.%XG.( 1 6 ; d L.J.J.J.J.J.J.L.& ^.yX#.} PXPXPXPXPXPXPXPXPX",
"PXPXPXPXPXPX7X~ x z XX&X%X%X&X&X%X=X&X%X%X;Xa.n 8 n V.=X%X%XJ.J.J.%X%XJ.=XS.e 1 1 - 8.=XJ.J.J.J.J.L.d.+ 0 >.).[.PXPXPXPXPXPXPXPX",
"PXPXPXPXPXtX XdXqX% *X&X&X&X%X%X&X%X&X=X%X;Xa.m 8 n V.=X%XJ.%X%XJ.J.J.%XH.:X%.; < < * K.J.J.J.J.J.L.c.,.2XCXtXG PXPXPXPXPXPXPXPX",
"PXPXPXPXPX3.3 OXD.d >X%X%X%X&X&X%X&X%X=X%X-X&.m 8 n C.=X%X%X%XJ.%XJ.%XJ.%XL.G.O < < q d.L.J.J.J.J.J.A.V |.rXo.q.PXPXPXPXPXPXPXPX",
"PXPXPXPXPXkXX._ f 0.&X%X%X%X&X%X%X=X%X&X%X-Xi.m 8 n V.=X%X%X%X%X%X%XJ.%XJ.J.=X( ; < , { L.J.J.J.J.J.K.@.+ R } 8XGXPXPXPXPXPXPXPX",
"PXPXPXPXDXmXfXCXT.E <X%X&X%X&X%X-X%X%X&X%X;X&.m 8 n V.=X%X%X%X%X%X%XJ.%X%XJ.-X*.- > ; R J.J.J.J.J.J.K.f.qX8XIXw.2XPXPXPXPXPXPXPX",
"PXPXPXPXkX` p.HX$.O.<X%X%X%X%X%X&X%X%X-X%X;X&.n 8 n V.=X%X%X%X%X%X%X%XJ.J.H.:Xj.X 2 > R F.L.J.J.J.J.L.] ^.3XBX^ kXPXPXPXPXPXPXPX",
"PXPXPXPXLXW b n W d.&X%X%X%X&X&X%X%X-X%X%X;X&.n 8 x C.=X%XJ.%X%X%X%X%XJ.J.%X=Xz.O y > d B.L.J.J.J.J.J.7.+ p p ! LXPXPXPXPXPXPXPX",
"PXPXPXPXLXMX{.7XT.0 %X%X&X%X%X%X%X&X%X%X%X;X&.x 9 z C.-X%X%X%X%XJ.%X%X%X%XJ.=Xx.* y = d B.L.J.J.J.J.F.h.lX).6X6XgXPXPXPXPXPXPXPX",
"PXPXPXPXlXoXtXLXn.i S.&X%X&X&X%X&X%X%X%X%X;X&.x 7 x V.-X%X%X%X%X%X%X%X%XJ.J.=XM.E u = W A.L.J.J.J.J.K.,. X).PX,.(.PXPXPXPXPXPXPX",
"PXPXLXPXMXq =.i.h ^ z.-X%X%X%X%X%X%X&X&X%X-X&.x 7 x V.:X%XJ.%X%X%X%X%X%X%XJ.=Xx...2 > E G.J.J.J.J.L.B. .X z 0.s MXPXPXPXPXPXPXPX",
"PXPXPXPXPX_.[ u.(.V *.&X%X%X%X&X%X&X%X%X%X-X&.h 7 z C.-X%X%X%X%X%X%XJ.%X%X%X=Xb.4.> ,  .%XJ.J.J.J.L.k.tX(.<.Q 2XPXPXPXPXPXPXPXPX",
"PXPXPXPXGXMXMXCXHXf [ *X%X%X%X&X%X%X&X%X%X,X&.j 7 z C.-X%X%X%X%X%X%X%X%X%X%X%Xh.0.= a 6.=XJ.J.J.J.J.6. X_.5XKXU MXPXPXPXPXPXPXPX",
"PXPXPXPXLX2.v.uXl.s ~ M.-X%X%X%X&X&X%X%X%X&X&.j 6 j C.=X%X&X%X%X%X%X%X%X%X%XH. Xo.= W M.=X%XJ.J.L.c.9.$ - wX+XZ IXPXPXPXPXPXPXPX",
"PXPXPXPXPX1X: c O.R.$ O.&X%X&X%X%X%X%X&X%X,X8.a 3 f C.-X%X%X%X%X%X%X%X%X%XJ.*XwX2 r  .J.J.J.%XK.L.7.wX).E g e 7XPXPXPXPXPXPXPXPX",
"PXPXPXPXPXKX7X6XhXnXi E V.-X%X&X%X%X&X%X%X-X*.f 6 a V.-X%X-X=X%XJ.%X%X%X%X%XjX0.2 E N.=XJ.%XJ.=XP.| wX X'.0X[.FXPXPXPXPXPXPXPXPX",
"PXPXPXPXPXzX~.cXAXD.k } } -X%X%X&X%X%X%X%X-X8.f 2 g V.-X%X%X&X%X%X%X%XJ.J.nXrXy d g.=XH.%XJ.J.=X7.9.$ - {.HX$ kXPXPXPXPXPXPXPXPX",
"PXPXPXPXPXPX:.c _ z {.F V y.;X%X%X%X%X&X%X-X8.^ 1 s V.-X%X%X%X=X%XJ.J.%XVXiXv d 6.%XJ.%XJ.H.:XM. .bXQ.O ` z <.PXPXPXPXPXPXPXPXPX",
"PXPXPXPXPXPXFXq.q.].FXO.R F Z.-X%X&X%X%X%X%X.X4.< 0 V.-X&X=X%X%X%X,XsXBXoXa E f.-X%X%XJ.J.%XG.| 0.eXQ.[.r.E.FXPXPXPXPXPXPXPXPXPX",
"PXPXPXPXPXPXPX9XGXFXbXl J Q J $X&X%X&X-X;X>XoX_ > , i h.XXOX>XpXpXrX.X~ d 6.S.=X%X%XJ.%X%X=X+.h.W.a * hXqX/.PXPXPXPXPXPXPXPXPXPX",
"PXPXPXPXPXPXPXQ.X.OX' ~ 7X# ! F *X&X%Xq.q.<.R W [ [ E Z K Q >.! Q { O.k.#X=X%X%X%X%XJ.J.%X7. .jX9X* u n.e W.PXPXPXPXPXPXPXPXPXPX",
"PXPXPXPXPXPXPXIXw.p } ].tX^ A :.F #X;XA.S.G.#X#X#XV.0.X.$X$Xv.` d.,X-X=X%X%X%X%X%XJ.:XH.7.{ t.|.Q '.G d E.IXPXPXPXPXPXPXPXPXPXPX",
"PXPXPXPXPXPXPXPXGX6XFXJXoXw ).F P L M.;X-X%X%X&X;XN.q $.-X;X' w b.-X%X%X%X%X%X%X%X=XG.%.| eX[.: i 4XkX).LXPXPXPXPXPXPXPXPXPXPXPX",
"PXPXPXPXPXPXPXPXIXP 0.OXz r.mX6.N Y P 5.$X-X&X%X%XN.# } &X-X{ # b.-X%X%X%X%X%X=X%Xk.K S ).wXW.Y w n.f L IXPXPXPXPXPXPXPXPXPXPXPX",
"PXPXPXPXPXPXPXPXPXGX>.p 2.dX6Xx S 7XP <.>.f.#X-X-X%XC.#X%X=X#XZ.$X%X%X=X%X-X$XN. .S I.7Xe.r P }.1.i <.GXPXPXPXPXPXPXPXPXPXPXPXPX",
"PXPXPXPXPXPXPXPXPXPXPX8XMXPXvXr _.yXZ A E.>.1.6.V.H.=X-X-X-X;X;X-X-X=X$XS.d.+.S I T bXq.Q.o 2.7X2X8XPXPXPXPXPXPXPXPXPXPXPXPXPXPX",
"PXPXPXPXPXPXPXPXPXLXPX6XZ v.z ! }.q., P zXA >.^.Y ,.5.f.b.b.b.z.b.f.9.{ >.Y F lXW.(.) Q }.V l ) + 8XPXPXPXPXPXPXPXPXPXPXPXPXPXPX",
"PXPXPXPXPXPXPXPXPXPXPXPXlX! 3.zXUXyXw [.3.: N mXD N >.} } } >.} ] D A w.cX:.].OX[ /.o >.`.gX} <.kXPXPXPXPXPXPXPXPXPXPXPXPXPXPXPX",
"PXPXPXPXPXPXPXPXPXPXPXPXLXPXfXwXBXi.E '.r.; e.r.2 % /.R.U L L I I T I.1X8.,.w.; T Y.% z X.D gXPXPXPXPXPXPXPXPXPXPXPXPXPXPXPXPXPX",
"PXPXPXPXPXPXPXPXPXPXPXPXPXPXkXG p i 1XIXMX^ w.I.q d FXPXLXPXLXLXLXPXUXE r Y.I e Q '._.O f >.zXPXLXPXPXPXPXPXPXPXPXPXPXPXPXPXPXPX",
"PXPXPXPXPXPXPXPXPXPXPXPXPXPXPXPXZXgX_.iXl.0 6XZXp.Q [.4XFXZXNXMXzX8X}.D d U '.X c q w.zXMXIXPXPXPXPXPXPXPXPXPXPXPXPXPXPXPXPXPXPX",
"PXPXPXPXPXPXPXPXPXPXPXPXPXPXPXLXPXKXT E R T.mXbX_ Q PXPX8XI.].I.].PXIXV u - T.T.E ..Q.GXPXPXPXPXPXPXPXPXPXPXPXPXPXPXPXPXPXPXPXPX",
"PXPXPXPXPXPXPXPXPXPXPXPXPXPXPXPXLXPXPXLXIXgX# a Z 9XPX4X8XIXPXPX9X].PX7Xs W % gXLXKXPXPXPXPXPXPXPXPXPXPXPXPXPXPXPXPXPXPXPXPXPXPX",
"PXPXPXPXPXPXPXPXPXPXPXPXPXPXPXPXPXPXPXPXPXLXAXNXFXPXLXFXPXPXPXPXPXFXLXPXFXNXFXLXPXPXPXPXPXPXPXPXPXPXPXPXPXPXPXPXPXPXPXPXPXPXPXPX",
"PXPXPXPXPXPXPXPXPXPXPXPXPXPXPXPXPXPXPXPXPXPXPXPXPXPXPXPXPXPXPXPXPXPXPXPXPXPXPXPXPXPXPXPXPXPXPXPXPXPXPXPXPXPXPXPXPXPXPXPXPXPXPXPX",
"PXPXPXPXPXPXPXPXPXPXPXPXPXPXPXPXPXPXPXPXPXPXPXPXPXPXPXPXPXPXPXPXPXPXPXPXPXPXPXPXPXPXPXPXPXPXPXPXPXPXPXPXPXPXPXPXPXPXPXPXPXPXPXPX",
"PXPXPXPXPXPXPXPXPXPXPXPXPXPXPXPXPXPXPXPXPXPXPXPXPXPXPXPXPXPXPXPXPXPXPXPXPXPXPXPXPXPXPXPXPXPXPXPXPXPXPXPXPXPXPXPXPXPXPXPXPXPXPXPX",
"PXPXPXPXPXPXPXPXPXPXPXPXPXPXPXPXPXPXPXPXPXPXPXPXPXPXPXPXPXPXPXPXPXPXPXPXPXPXPXPXPXPXPXPXPXPXPXPXPXPXPXPXPXPXPXPXPXPXPXPXPXPXPXPX",
"PXPXPXPXPXPXPXPXPXPXPXPXPXPXPXPXPXPXPXPXPXPXPXPXPXPXPXPXPXPXPXPXPXPXPXPXPXPXPXPXPXPXPXPXPXPXPXPXPXPXPXPXPXPXPXPXPXPXPXPXPXPXPXPX",
"PXPXPXPXPXPXPXPXPXPXPXPXPXPXPXPXPXPXPXPXPXPXPXPXPXPXPXPXPXPXPXPXPXPXPXPXPXPXPXPXPXPXPXPXPXPXPXPXPXPXPXPXPXPXPXPXPXPXPXPXPXPXPXPX",
"PXPXPXPXPXPXPXPXPXPXPXPXPXPXPXPXPXPXPXPXPXPXPXPXPXPXPXPXPXPXPXPXPXPXPXPXPXPXPXPXPXPXPXPXPXPXPXPXPXPXPXPXPXPXPXPXPXPXPXPXPXPXPXPX"
};
