/* XPM */
static char *_1f2c744e8424307e8fd820483b4fd88[] = {
/* columns rows colors chars-per-pixel */
"16 16 158 2 ",
"   c gray100",
".  c #FFFFFE",
"X  c #FEFEFD",
"o  c #FFFEFE",
"O  c #FEFEFE",
"+  c #FCFBFB",
"@  c #FAF8F3",
"#  c #FCFBFA",
"$  c #FDFDFE",
"%  c #FEFDFD",
"&  c #FCFAF7",
"*  c #E3CDA8",
"=  c #D4B675",
"-  c #DEC97A",
";  c #E4CE74",
":  c #E4D07F",
">  c #D7BE7C",
",  c #D8C197",
"<  c #F3ECE3",
"1  c #FBF7F2",
"2  c #D8B87C",
"3  c #D5B458",
"4  c #EDD872",
"5  c #F5E278",
"6  c #F9E87D",
"7  c #F8E575",
"8  c #F4DF6F",
"9  c #D8BD5D",
"0  c #CEB277",
"q  c #EAE0CF",
"w  c #DEBF8A",
"e  c #DABA5A",
"r  c #F4E282",
"t  c #FBE689",
"y  c #EED27A",
"u  c #E5C66D",
"i  c #F1D777",
"p  c #FFF082",
"a  c #FAEA7C",
"s  c #DDC361",
"d  c #CAAC72",
"f  c #F2ECE3",
"g  c #F1E5D2",
"h  c #DAB562",
"j  c #F4E280",
"k  c #FEF18B",
"l  c #EECA61",
"z  c #ECC054",
"x  c #F8E480",
"c  c #F0D674",
"v  c #DAAD42",
"b  c #F3DB6B",
"n  c #FCEB7B",
"m  c #D8BB64",
"M  c #DCC9AD",
"N  c #E5CEA8",
"B  c #E5C76D",
"V  c #FFF38A",
"C  c #FFF38D",
"Z  c #F1D060",
"A  c #EEC451",
"S  c #FFF38B",
"D  c #FFF588",
"F  c #E7C555",
"G  c #D09F2D",
"H  c #FFF685",
"J  c #ECD66E",
"K  c #D1B88B",
"L  c #FCFBF9",
"P  c #E1C89F",
"I  c #E8CD70",
"U  c #FFEF88",
"Y  c #FFF28C",
"T  c #F0CF62",
"R  c #EDC352",
"E  c #FFF08A",
"W  c #FFED83",
"Q  c #F5E176",
"!  c #CC992A",
"~  c #FBE678",
"^  c #F3E077",
"/  c #D1B786",
"(  c #F8F5F0",
")  c #E2CBA5",
"_  c #DFC067",
"`  c #FFEF87",
"'  c #FFF18D",
"]  c #ECCB61",
"[  c #E7BF53",
"{  c #FFF18B",
"}  c #FFEC82",
"|  c #F8E37C",
" . c #D0A23D",
".. c #FDE979",
"X. c #EEDA78",
"o. c #CFB484",
"O. c #F9F6F1",
"+. c #E8D6B9",
"@. c #D1AE65",
"#. c #F6E47E",
"$. c #FFF690",
"%. c #E7C760",
"&. c #E0BD53",
"*. c #FFF88F",
"=. c #FFF388",
"-. c #EBD17F",
";. c #DCB959",
":. c #FFF584",
">. c #DAC070",
",. c #D2B88C",
"<. c #F3EBDD",
"1. c #D3B47E",
"2. c #D2B566",
"3. c #E6C86C",
"4. c #D4AC4B",
"5. c #EFDA81",
"6. c #EDD687",
"7. c #E7CB76",
"8. c #FEED7C",
"9. c #EEDB7D",
"0. c #C9A869",
"q. c #E2D2B4",
"w. c #FEFEFF",
"e. c #E1CDA8",
"r. c #CBAB71",
"t. c #CFB56E",
"y. c #F3E082",
"u. c #EBD170",
"i. c #E4C868",
"p. c #F5DE78",
"a. c #FFEF82",
"s. c #E5D27E",
"d. c #C9AB6E",
"f. c #CEB078",
"g. c #F9F7F2",
"h. c #DFCAA3",
"j. c #CCAC75",
"k. c #C8A865",
"l. c #D6BC70",
"z. c #E0CB7F",
"x. c #DBC47A",
"c. c #CEB373",
"v. c #C09E62",
"b. c #CAAA6F",
"n. c #F2EBDE",
"m. c #FAF9F6",
"M. c #E7D9BE",
"N. c #D3B681",
"B. c #D8C2A0",
"V. c #E4DFE0",
"C. c #DBCBB6",
"Z. c #C6A15E",
"A. c #D8C194",
"S. c #F6F2EA",
"D. c #FBF9F5",
"F. c #FCFBF8",
"G. c #FDFCFA",
"H. c #FAF7F1",
/* pixels */
"      . X .         o O         ",
"    . .   + + @ # $ %   O       ",
"  .   & * = - ; : > , <   o     ",
".   1 2 3 4 5 6 7 8 9 0 q   .   ",
"    w e r t y u i p a s d f   O ",
"  g h j k l z x c v b n m M   o ",
"  N B V C Z A S D F G H J K L   ",
"  P I U Y T R E W Q ! ~ ^ / (   ",
"  ) _ ` ' ] [ { } |  ...X.o.O.  ",
"  +.@.#.$.%.&.*.=.-.;.:.>.,.X   ",
"  <.1.2.Y 3.4.5.6.7.8.9.0.q.  X ",
"  w.e.r.t.y.u.i.p.a.s.d.f.g.  o ",
".   O.h.j.k.l.z.x.c.v.b.n.  O   ",
"  .   m.M.N.B.V.C.Z.A.S.  o     ",
"    . .   D.F.w.G.H.  . o       ",
"      . X           X O         "
};
